<mxfile host="app.diagrams.net" modified="2024-05-15T12:16:42.948Z" agent="Mozilla/5.0 (Windows NT 10.0; Win64; x64) AppleWebKit/537.36 (KHTML, like Gecko) Chrome/124.0.0.0 Safari/537.36" etag="dKiLdoi4arXZ_rkTD_jQ" version="24.0.2" type="device">
  <diagram name="Side-1" id="0-vZxpsVe3E3i0yneJBH">
    <mxGraphModel dx="587" dy="522" grid="1" gridSize="10" guides="1" tooltips="1" connect="1" arrows="1" fold="1" page="1" pageScale="1" pageWidth="827" pageHeight="1169" math="0" shadow="0">
      <root>
        <mxCell id="0" />
        <mxCell id="1" parent="0" />
        <mxCell id="0MUwrSGqUaJdOMJpAXrn-33" style="edgeStyle=orthogonalEdgeStyle;rounded=0;orthogonalLoop=1;jettySize=auto;html=1;entryX=1;entryY=0.5;entryDx=0;entryDy=0;" parent="1" source="0MUwrSGqUaJdOMJpAXrn-20" target="0MUwrSGqUaJdOMJpAXrn-31" edge="1">
          <mxGeometry relative="1" as="geometry" />
        </mxCell>
        <mxCell id="0MUwrSGqUaJdOMJpAXrn-37" style="edgeStyle=orthogonalEdgeStyle;rounded=0;orthogonalLoop=1;jettySize=auto;html=1;exitX=0.75;exitY=1;exitDx=0;exitDy=0;entryX=0.25;entryY=0;entryDx=0;entryDy=0;strokeColor=none;curved=1;" parent="1" source="0MUwrSGqUaJdOMJpAXrn-20" target="0MUwrSGqUaJdOMJpAXrn-36" edge="1">
          <mxGeometry relative="1" as="geometry" />
        </mxCell>
        <mxCell id="zVdAgbU-qoPaEBeSetC5-38" style="edgeStyle=orthogonalEdgeStyle;rounded=0;orthogonalLoop=1;jettySize=auto;html=1;entryX=0.5;entryY=0;entryDx=0;entryDy=0;" edge="1" parent="1" source="0MUwrSGqUaJdOMJpAXrn-20" target="0MUwrSGqUaJdOMJpAXrn-29">
          <mxGeometry relative="1" as="geometry" />
        </mxCell>
        <mxCell id="zVdAgbU-qoPaEBeSetC5-42" style="edgeStyle=orthogonalEdgeStyle;rounded=0;orthogonalLoop=1;jettySize=auto;html=1;exitX=0;exitY=0.75;exitDx=0;exitDy=0;entryX=1;entryY=0.25;entryDx=0;entryDy=0;curved=1;" edge="1" parent="1" source="0MUwrSGqUaJdOMJpAXrn-20" target="0MUwrSGqUaJdOMJpAXrn-21">
          <mxGeometry relative="1" as="geometry" />
        </mxCell>
        <mxCell id="zVdAgbU-qoPaEBeSetC5-44" style="edgeStyle=orthogonalEdgeStyle;rounded=0;orthogonalLoop=1;jettySize=auto;html=1;entryX=0.5;entryY=0;entryDx=0;entryDy=0;" edge="1" parent="1" source="0MUwrSGqUaJdOMJpAXrn-20" target="zVdAgbU-qoPaEBeSetC5-33">
          <mxGeometry relative="1" as="geometry" />
        </mxCell>
        <mxCell id="0MUwrSGqUaJdOMJpAXrn-20" value="Controller" style="html=1;whiteSpace=wrap;" parent="1" vertex="1">
          <mxGeometry x="370" y="400" width="110" height="50" as="geometry" />
        </mxCell>
        <mxCell id="zVdAgbU-qoPaEBeSetC5-6" style="edgeStyle=orthogonalEdgeStyle;rounded=0;orthogonalLoop=1;jettySize=auto;html=1;entryX=0.5;entryY=0;entryDx=0;entryDy=0;" edge="1" parent="1" source="0MUwrSGqUaJdOMJpAXrn-21" target="0MUwrSGqUaJdOMJpAXrn-26">
          <mxGeometry relative="1" as="geometry" />
        </mxCell>
        <mxCell id="0MUwrSGqUaJdOMJpAXrn-21" value="Embedding" style="html=1;whiteSpace=wrap;" parent="1" vertex="1">
          <mxGeometry x="220" y="480" width="110" height="50" as="geometry" />
        </mxCell>
        <mxCell id="0MUwrSGqUaJdOMJpAXrn-26" value="MilvusDB" style="html=1;whiteSpace=wrap;" parent="1" vertex="1">
          <mxGeometry x="220" y="574.5" width="110" height="50" as="geometry" />
        </mxCell>
        <mxCell id="zVdAgbU-qoPaEBeSetC5-3" style="edgeStyle=orthogonalEdgeStyle;rounded=0;orthogonalLoop=1;jettySize=auto;html=1;entryX=0.5;entryY=0;entryDx=0;entryDy=0;" edge="1" parent="1" source="0MUwrSGqUaJdOMJpAXrn-29" target="zVdAgbU-qoPaEBeSetC5-2">
          <mxGeometry relative="1" as="geometry" />
        </mxCell>
        <mxCell id="zVdAgbU-qoPaEBeSetC5-39" style="edgeStyle=orthogonalEdgeStyle;rounded=0;orthogonalLoop=1;jettySize=auto;html=1;entryX=1;entryY=0.5;entryDx=0;entryDy=0;" edge="1" parent="1" source="0MUwrSGqUaJdOMJpAXrn-29" target="0MUwrSGqUaJdOMJpAXrn-21">
          <mxGeometry relative="1" as="geometry" />
        </mxCell>
        <mxCell id="zVdAgbU-qoPaEBeSetC5-41" style="edgeStyle=orthogonalEdgeStyle;rounded=0;orthogonalLoop=1;jettySize=auto;html=1;entryX=0;entryY=0.5;entryDx=0;entryDy=0;" edge="1" parent="1" source="0MUwrSGqUaJdOMJpAXrn-29" target="zVdAgbU-qoPaEBeSetC5-33">
          <mxGeometry relative="1" as="geometry" />
        </mxCell>
        <mxCell id="0MUwrSGqUaJdOMJpAXrn-29" value="ModelAsker" style="html=1;whiteSpace=wrap;" parent="1" vertex="1">
          <mxGeometry x="370" y="480" width="110" height="50" as="geometry" />
        </mxCell>
        <mxCell id="0MUwrSGqUaJdOMJpAXrn-31" value="ModelLoader" style="html=1;whiteSpace=wrap;" parent="1" vertex="1">
          <mxGeometry x="220" y="400" width="110" height="50" as="geometry" />
        </mxCell>
        <mxCell id="0MUwrSGqUaJdOMJpAXrn-36" value="PostgresDB" style="html=1;whiteSpace=wrap;" parent="1" vertex="1">
          <mxGeometry x="520" y="574.5" width="110" height="50" as="geometry" />
        </mxCell>
        <mxCell id="zVdAgbU-qoPaEBeSetC5-2" value="Groq" style="html=1;whiteSpace=wrap;" vertex="1" parent="1">
          <mxGeometry x="370" y="574.5" width="110" height="50" as="geometry" />
        </mxCell>
        <mxCell id="zVdAgbU-qoPaEBeSetC5-40" style="edgeStyle=orthogonalEdgeStyle;rounded=0;orthogonalLoop=1;jettySize=auto;html=1;entryX=0.5;entryY=0;entryDx=0;entryDy=0;" edge="1" parent="1" source="zVdAgbU-qoPaEBeSetC5-33" target="0MUwrSGqUaJdOMJpAXrn-36">
          <mxGeometry relative="1" as="geometry" />
        </mxCell>
        <mxCell id="zVdAgbU-qoPaEBeSetC5-33" value="DataLoader" style="html=1;whiteSpace=wrap;" vertex="1" parent="1">
          <mxGeometry x="520" y="480" width="110" height="50" as="geometry" />
        </mxCell>
      </root>
    </mxGraphModel>
  </diagram>
</mxfile>
